<?xml version="1.0" standalone="no"?>
<!DOCTYPE svg PUBLIC "-//W3C//DTD SVG 20010904//EN"
 "http://www.w3.org/TR/2001/REC-SVG-20010904/DTD/svg10.dtd">
<svg version="1.0" xmlns="http://www.w3.org/2000/svg"
 width="512.000000pt" height="512.000000pt" viewBox="0 0 512.000000 512.000000"
 preserveAspectRatio="xMidYMid meet">
<metadata>
Created by potrace 1.14, written by Peter Selinger 2001-2017
</metadata>
<g transform="translate(0.000000,512.000000) scale(0.100000,-0.100000)"
fill="#000000" stroke="none">
<path d="M2501 4918 c-58 -10 -117 -41 -164 -86 -43 -41 -65 -76 -88 -142 -14
-41 -35 -60 -265 -237 -152 -116 -252 -201 -258 -216 -14 -39 1 -77 36 -92 18
-7 40 -10 49 -6 10 3 110 77 223 164 113 86 211 159 218 162 7 3 18 -7 25 -22
7 -16 24 -40 38 -55 156 -168 401 -145 526 50 15 24 29 39 31 35 1 -5 41 -38
88 -73 46 -36 91 -70 100 -77 8 -7 139 -107 290 -223 151 -116 285 -220 298
-231 12 -10 26 -19 31 -19 5 0 11 -4 13 -8 2 -4 82 -68 178 -142 96 -74 180
-138 185 -142 6 -4 29 -23 52 -42 l42 -34 -144 0 c-79 0 -152 -3 -163 -6 -11
-4 -29 -21 -40 -39 l-18 -32 -93 1 -93 0 -13 31 c-7 17 -23 34 -36 38 -12 4
-598 7 -1302 7 -703 0 -1275 3 -1270 8 4 4 58 45 118 91 61 46 115 87 120 92
6 4 78 59 160 123 203 155 218 170 211 208 -8 39 -33 66 -63 66 -40 0 -27 9
-368 -255 -71 -55 -174 -134 -228 -175 -54 -41 -122 -93 -151 -116 l-54 -41
-224 -1 c-181 -1 -233 -4 -273 -18 -89 -29 -157 -91 -198 -181 l-22 -48 -3
-931 -2 -931 21 -26 c11 -15 27 -27 35 -27 16 0 16 2 18 -114 2 -87 1 -89 -25
-98 -49 -17 -51 -31 -47 -364 3 -299 4 -311 26 -357 45 -94 139 -167 238 -184
27 -5 1073 -8 2324 -8 l2275 1 58 27 c67 30 135 97 168 165 l24 47 3 1370 c2
1024 0 1384 -9 1425 -18 85 -68 154 -149 204 -65 41 -111 47 -342 48 l-221 0
-86 66 c-47 37 -88 69 -91 72 -3 3 -50 39 -105 80 -54 41 -108 83 -120 92 -11
9 -173 134 -360 278 -187 143 -360 276 -385 295 -25 19 -118 91 -207 160 -146
113 -163 129 -173 166 -12 45 -32 81 -70 125 -68 80 -190 122 -299 102z"/>
</g>
</svg>
